<mxfile host="app.diagrams.net" modified="2023-04-06T05:24:56.540Z" agent="Mozilla/5.0 (Macintosh; Intel Mac OS X 10_15_7) AppleWebKit/537.36 (KHTML, like Gecko) Chrome/111.0.0.0 Safari/537.36" version="21.1.4" etag="33yY4JjkRARKHxSIDTS4" type="github">
  <diagram name="Page-1" id="HTmzxz2u98uyi0w9LAxA">
    <mxGraphModel>
      <root>
        <mxCell id="0" />
        <mxCell id="1" parent="0" />
      </root>
    </mxGraphModel>
  </diagram>
</mxfile>
